<svg viewBox="0 0 24 24" fill="#E4405F" xmlns="http://www.w3.org/2000/svg"><path d="M12 2.163c3.204 0 3.584.012 4.849.07 1.366.062 2.633.333 3.608 1.308.974.975 1.246 2.243 1.308 3.608.058 1.265.069 1.645.069 4.849s-.012 3.584-.07 4.849c-.062 1.366-.333 2.633-1.308 3.608-.975.974-2.243 1.246-3.608 1.308-1.265.057-1.645.069-4.849.069s-3.584-.012-4.849-.07c-1.366-.062-2.633-.333-3.608-1.308-.974-.975-1.246-2.243-1.308-3.608-.057-1.265-.069-1.645-.069-4.849s.012-3.584.07-4.849c.062-1.366.333-2.633 1.308-3.608.975-.974 2.243-1.246 3.608-1.308 1.265-.057 1.645-.069 4.849-.069zm0-2.163c-3.259 0-3.667.012-4.945.071-1.276.059-2.675.327-3.637 1.289-.963.963-1.231 2.362-1.29 3.637-.058 1.278-.07 1.687-.07 4.946s.012 3.667.071 4.945c.059 1.276.327 2.675 1.29 3.637.963.963 2.362 1.231 3.637 1.29 1.278.058 1.687.07 4.945.07s3.667-.012 4.945-.071c1.276-.059 2.675-.327 3.637-1.29.963-.963 1.231-2.362 1.29-3.637.058-1.278.07-1.687.07-4.945s-.012-3.667-.071-4.945c-.059-1.276-.327-2.675-1.29-3.637-.963-.963-2.362-1.231-3.637-1.29-1.278-.058-1.687-.07-4.945-.07zm0 5.838c-3.403 0-6.162 2.759-6.162 6.162s2.759 6.162 6.162 6.162 6.162-2.759 6.162-6.162-2.759-6.162-6.162-6.162zm0 10.162a4 4 0 1 1 0-8 4 4 0 0 1 0 8zm6.406-11.845a1.44 1.44 0 1 1-2.882 0 1.44 1.44 0 0 1 2.882 0z"></path></svg>
