<svg viewBox="0 0 24 24" fill="#0077B5" xmlns="http://www.w3.org/2000/svg"><path d="M19 0h-14c-2.761 0-5 2.239-5 5v14c0 2.761 2.239 5 5 5h14c2.761 0 5-2.239 5-5v-14c0-2.761-2.239-5-5-5zm-11 19h-3v-10h3v10zm-1.5-11.268c-.966 0-1.75-.791-1.75-1.764 0-.974.784-1.764 1.75-1.764s1.75.79 1.75 1.764c0 .973-.784 1.764-1.75 1.764zm13.5 11.268h-3v-5.604c0-1.336-.027-3.059-1.865-3.059-1.866 0-2.153 1.456-2.153 2.963v5.7h-3v-10h2.881v1.367h.041c.401-.756 1.38-1.553 2.841-1.553 3.04 0 3.6 2.002 3.6 4.601v5.585z"></path></svg>
