<svg viewBox="0 0 24 24" fill="#25D366" xmlns="http://www.w3.org/2000/svg"><path d="M17.472 14.382c-.297-.149-1.758-.867-2.031-.967-.273-.099-.471-.148-.669.15-.198.297-.767.967-.94 1.166-.173.198-.347.223-.644.075-.297-.149-1.255-.462-2.39-1.475-.883-.788-1.48-1.761-1.653-2.059-.173-.297-.018-.458.13-.606.134-.133.297-.347.446-.521.151-.174.2-.298.3-.497.099-.198.05-.372-.025-.521-.075-.149-.669-1.611-.916-2.208-.242-.579-.487-.501-.669-.511-.173-.007-.372-.009-.571-.009-.198 0-.521.075-.793.372-.272.297-1.04 1.016-1.04 2.479 0 1.462 1.065 2.875 1.213 3.074.149.198 2.098 3.2 5.077 4.365.709.273 1.262.435 1.694.557.712.204 1.36.175 1.87.106.571-.079 1.758-.719 2.006-1.413.248-.695.248-1.289.173-1.413-.074-.124-.272-.198-.571-.347m-5.421 6.307c-3.332 0-6.065-2.711-6.065-6.035 0-1.028.272-2.031.799-2.897l-2.117-6.52 6.687 2.105c.807-.218 1.647-.331 2.504-.331 3.331 0 6.064 2.711 6.064 6.035s-2.733 6.035-6.064 6.035"></path></svg>
